<?xml version="1.0" standalone="no"?>
<!DOCTYPE svg PUBLIC "-//W3C//DTD SVG 20010904//EN"
 "http://www.w3.org/TR/2001/REC-SVG-20010904/DTD/svg10.dtd">
<svg version="1.0" xmlns="http://www.w3.org/2000/svg"
 width="700.000000pt" height="700.000000pt" viewBox="0 0 700.000000 700.000000"
 preserveAspectRatio="xMidYMid meet">
<metadata>
Created by potrace 1.11, written by Peter Selinger 2001-2013
</metadata>
<g transform="translate(0.000000,700.000000) scale(0.100000,-0.100000)"
fill="#000000" stroke="none">
<path d="M3225 6994 c-246 -25 -498 -70 -680 -123 -579 -166 -1095 -470 -1520
-896 -489 -488 -819 -1099 -955 -1765 -56 -278 -64 -367 -64 -710 0 -343 8
-432 64 -710 136 -666 466 -1277 955 -1765 488 -489 1099 -819 1765 -955 278
-56 367 -64 710 -64 343 0 432 8 710 64 666 136 1277 466 1765 955 489 488
819 1099 955 1765 56 278 64 367 64 710 0 343 -8 432 -64 710 -136 666 -466
1277 -955 1765 -552 553 -1240 892 -2030 1001 -114 15 -617 28 -720 18z m-240
-1254 c247 -20 446 -69 661 -160 385 -162 659 -412 829 -755 57 -115 97 -219
119 -307 l6 -28 -146 0 c-422 0 -791 -131 -1125 -401 -217 -176 -367 -400
-444 -664 -48 -167 -45 -421 7 -613 11 -41 18 -76 15 -78 -2 -2 -82 1 -177 6
-178 11 -323 34 -471 76 l-87 24 -288 -155 c-159 -84 -290 -151 -292 -147 -1
4 34 115 78 247 44 132 80 243 80 247 0 4 -34 32 -76 63 -252 186 -438 439
-542 736 -91 258 -89 579 4 841 130 364 448 699 839 884 195 92 468 164 690
182 155 13 185 13 320 2z m1633 -1361 c650 -70 1150 -458 1299 -1009 14 -51
17 -104 17 -245 0 -165 -2 -188 -27 -279 -15 -54 -46 -136 -67 -182 -78 -161
-249 -359 -410 -472 -36 -25 -67 -47 -69 -49 -3 -2 106 -364 127 -422 3 -8
-48 14 -114 49 -65 35 -174 92 -241 126 l-123 61 -92 -24 c-413 -107 -846 -72
-1202 97 -272 129 -533 380 -652 628 -67 137 -95 257 -101 426 -6 157 4 232
49 370 80 246 257 487 472 640 303 216 746 328 1134 285z"/>
<path d="M2135 5004 c-98 -35 -165 -131 -165 -238 0 -114 65 -206 170 -241
163 -54 329 63 331 233 3 180 -169 305 -336 246z"/>
<path d="M3368 5006 c-55 -20 -85 -42 -118 -88 -128 -176 6 -413 223 -396 72
6 109 23 156 70 94 93 95 253 3 352 -62 66 -177 93 -264 62z"/>
<path d="M3900 3708 c-146 -75 -145 -284 2 -359 125 -64 282 21 296 160 6 69
-33 151 -90 189 -58 38 -146 42 -208 10z"/>
<path d="M4895 3713 c-71 -37 -124 -114 -125 -178 0 -38 40 -123 71 -152 87
-79 227 -66 303 29 52 67 47 180 -12 250 -52 62 -169 87 -237 51z"/>
</g>
</svg>
